<svg id="Слой_1" data-name="Слой 1" xmlns="http://www.w3.org/2000/svg" viewBox="0 0 27.37 27.38"><defs><style>.cls-1{fill-rule:evenodd;}</style></defs><path class="cls-1" d="M430,485.58l-5.71-5.71h-.22l-5.6,5.71v.22l1.29,1.19,4.31-4.42h.22l4.42,4.42L430,485.8c.11-.1.11-.22,0-.22Zm8-1.61h0a13.69,13.69,0,1,0-27.38,0,13.81,13.81,0,0,0,13.69,13.69,13.26,13.26,0,0,0,9.59-4.1A13.53,13.53,0,0,0,438,484Zm-6.15-7.65h0a10.78,10.78,0,1,1-7.54-3.13,10.75,10.75,0,0,1,7.54,3.13Z" transform="translate(-410.61 -470.28)"/></svg>