<!-- icon666.com - MILLIONS OF FREE VECTOR ICONS --><svg id="Layer_1" viewBox="0 0 512 512" xmlns="http://www.w3.org/2000/svg" data-name="Layer 1"><path d="m66 448.77a30 30 0 0 1 -30-30v-105.47a29.86 29.86 0 0 1 25.27-29.62l173.51-27.68-173.51-27.67a29.88 29.88 0 0 1 -25.27-29.63v-105.46a30 30 0 0 1 41.67-27.64l377.81 159.46a33.59 33.59 0 0 1 0 61.88l-377.81 159.46a30 30 0 0 1 -11.67 2.37zm0-365.55a10 10 0 0 0 -5.5 1.68 9.87 9.87 0 0 0 -4.5 8.34v105.46a10 10 0 0 0 8.42 9.88l220.82 35.22a12.35 12.35 0 0 1 0 24.4l-220.82 35.23a9.94 9.94 0 0 0 -8.42 9.87v105.46a10 10 0 0 0 13.89 9.24l377.81-159.49a13.58 13.58 0 0 0 0-25l-377.81-159.51a10.25 10.25 0 0 0 -3.89-.78z"></path></svg>